<svg width="202" height="41" viewBox="0 0 202 41" fill="none" xmlns="http://www.w3.org/2000/svg">
<path d="M19.77 36.9025C18.75 38.1025 17.52 39.0525 16.08 39.7525C14.64 40.4325 13.02 40.7725 11.22 40.7725C9.62 40.7725 8.14 40.4925 6.78 39.9325C5.42 39.3525 4.23 38.5625 3.21 37.5625C2.21 36.5425 1.42 35.3525 0.84 33.9925C0.28 32.6325 0 31.1525 0 29.5525C0 27.9725 0.28 26.5025 0.84 25.1425C1.42 23.7625 2.21 22.5725 3.21 21.5725C4.23 20.5525 5.42 19.7625 6.78 19.2025C8.14 18.6225 9.62 18.3325 11.22 18.3325C12.88 18.3325 14.37 18.6425 15.69 19.2625C17.01 19.8625 18.17 20.7225 19.17 21.8425L16.77 24.1825C16.05 23.3225 15.24 22.6725 14.34 22.2325C13.46 21.7925 12.42 21.5725 11.22 21.5725C10.16 21.5725 9.15 21.7625 8.19 22.1425C7.25 22.5025 6.43 23.0325 5.73 23.7325C5.03 24.4125 4.47 25.2525 4.05 26.2525C3.65 27.2325 3.45 28.3325 3.45 29.5525C3.45 30.7725 3.65 31.8825 4.05 32.8825C4.47 33.8625 5.03 34.7025 5.73 35.4025C6.43 36.0825 7.25 36.6125 8.19 36.9925C9.15 37.3525 10.16 37.5325 11.22 37.5325C12.5 37.5325 13.64 37.2725 14.64 36.7525C15.64 36.2125 16.53 35.4725 17.31 34.5325L19.77 36.9025ZM22.2497 40.2925V18.8125H25.5797V40.2925H22.2497ZM38.0829 38.4925H37.9029C37.4629 39.0725 36.8929 39.6025 36.1929 40.0825C35.4929 40.5425 34.6029 40.7725 33.5229 40.7725C32.7429 40.7725 32.0129 40.6425 31.3329 40.3825C30.6529 40.1425 30.0629 39.8025 29.5629 39.3625C29.0629 38.9025 28.6629 38.3725 28.3629 37.7725C28.0829 37.1525 27.9429 36.4725 27.9429 35.7325C27.9429 34.9525 28.0929 34.2525 28.3929 33.6325C28.7129 33.0125 29.1429 32.4925 29.6829 32.0725C30.2429 31.6525 30.9029 31.3325 31.6629 31.1125C32.4229 30.8725 33.2429 30.7525 34.1229 30.7525C35.1029 30.7525 35.9229 30.8525 36.5829 31.0525C37.2429 31.2325 37.7429 31.4025 38.0829 31.5625V30.9925C38.0829 30.5525 37.9829 30.1425 37.7829 29.7625C37.6029 29.3825 37.3429 29.0625 37.0029 28.8025C36.6829 28.5225 36.3129 28.3125 35.8929 28.1725C35.4729 28.0125 35.0329 27.9325 34.5729 27.9325C33.8329 27.9325 33.1629 28.0825 32.5629 28.3825C31.9829 28.6625 31.4629 29.1225 31.0029 29.7625L28.3629 28.0225C29.0629 27.0625 29.9329 26.3425 30.9729 25.8625C32.0129 25.3625 33.1929 25.1125 34.5129 25.1125C36.6929 25.1125 38.3729 25.6525 39.5529 26.7325C40.7529 27.8125 41.3529 29.3525 41.3529 31.3525V40.2925H38.0829V38.4925ZM38.0829 34.1725C37.6429 33.9125 37.1529 33.7025 36.6129 33.5425C36.0729 33.3825 35.4529 33.3025 34.7529 33.3025C33.7129 33.3025 32.8829 33.5425 32.2629 34.0225C31.6429 34.5025 31.3329 35.0825 31.3329 35.7625C31.3329 36.1225 31.4129 36.4425 31.5729 36.7225C31.7329 36.9825 31.9329 37.2125 32.1729 37.4125C32.4329 37.6125 32.7229 37.7625 33.0429 37.8625C33.3829 37.9625 33.7229 38.0125 34.0629 38.0125C34.6029 38.0125 35.1129 37.9125 35.5929 37.7125C36.0929 37.4925 36.5229 37.2125 36.8829 36.8725C37.2429 36.5125 37.5329 36.1025 37.7529 35.6425C37.9729 35.1825 38.0829 34.6925 38.0829 34.1725ZM49.9195 40.7725C49.0195 40.7725 48.2095 40.6525 47.4895 40.4125C46.7695 40.1725 46.1395 39.8625 45.5995 39.4825C45.0595 39.0825 44.5995 38.6325 44.2195 38.1325C43.8595 37.6325 43.5795 37.1125 43.3795 36.5725L46.3795 35.3125C46.7195 36.1725 47.2095 36.8125 47.8495 37.2325C48.4895 37.6325 49.1795 37.8325 49.9195 37.8325C50.7595 37.8325 51.4195 37.6625 51.8995 37.3225C52.3795 36.9825 52.6195 36.6025 52.6195 36.1825C52.6195 35.7625 52.4395 35.4025 52.0795 35.1025C51.7195 34.7825 51.0395 34.5025 50.0395 34.2625L47.9395 33.7525C47.4795 33.6525 47.0095 33.5025 46.5295 33.3025C46.0695 33.0825 45.6395 32.8125 45.2395 32.4925C44.8395 32.1525 44.5095 31.7525 44.2495 31.2925C44.0095 30.8125 43.8895 30.2525 43.8895 29.6125C43.8895 28.8925 44.0395 28.2525 44.3395 27.6925C44.6595 27.1325 45.0895 26.6625 45.6295 26.2825C46.1695 25.9025 46.7895 25.6125 47.4895 25.4125C48.2095 25.2125 48.9695 25.1125 49.7695 25.1125C50.4295 25.1125 51.0595 25.1825 51.6595 25.3225C52.2795 25.4625 52.8495 25.6725 53.3695 25.9525C53.8895 26.2325 54.3495 26.5925 54.7495 27.0325C55.1695 27.4525 55.4995 27.9525 55.7395 28.5325L52.7995 29.7625C52.5195 29.1225 52.0795 28.6625 51.4795 28.3825C50.8795 28.0825 50.2695 27.9325 49.6495 27.9325C49.3695 27.9325 49.0795 27.9725 48.7795 28.0525C48.4995 28.1125 48.2395 28.2125 47.9995 28.3525C47.7795 28.4725 47.5895 28.6325 47.4295 28.8325C47.2895 29.0325 47.2195 29.2525 47.2195 29.4925C47.2195 29.8925 47.3895 30.2125 47.7295 30.4525C48.0895 30.6725 48.6295 30.8725 49.3495 31.0525L51.5995 31.6225C53.1195 32.0025 54.2295 32.5825 54.9295 33.3625C55.6495 34.1225 56.0095 35.0225 56.0095 36.0625C56.0095 36.7025 55.8595 37.3025 55.5595 37.8625C55.2795 38.4225 54.8695 38.9225 54.3295 39.3625C53.7895 39.8025 53.1395 40.1425 52.3795 40.3825C51.6395 40.6425 50.8195 40.7725 49.9195 40.7725ZM63.982 40.7725C63.082 40.7725 62.272 40.6525 61.552 40.4125C60.832 40.1725 60.202 39.8625 59.662 39.4825C59.122 39.0825 58.662 38.6325 58.282 38.1325C57.922 37.6325 57.642 37.1125 57.442 36.5725L60.442 35.3125C60.782 36.1725 61.272 36.8125 61.912 37.2325C62.552 37.6325 63.242 37.8325 63.982 37.8325C64.822 37.8325 65.482 37.6625 65.962 37.3225C66.442 36.9825 66.682 36.6025 66.682 36.1825C66.682 35.7625 66.502 35.4025 66.142 35.1025C65.782 34.7825 65.102 34.5025 64.102 34.2625L62.002 33.7525C61.542 33.6525 61.072 33.5025 60.592 33.3025C60.132 33.0825 59.702 32.8125 59.302 32.4925C58.902 32.1525 58.572 31.7525 58.312 31.2925C58.072 30.8125 57.952 30.2525 57.952 29.6125C57.952 28.8925 58.102 28.2525 58.402 27.6925C58.722 27.1325 59.152 26.6625 59.692 26.2825C60.232 25.9025 60.852 25.6125 61.552 25.4125C62.272 25.2125 63.032 25.1125 63.832 25.1125C64.492 25.1125 65.122 25.1825 65.722 25.3225C66.342 25.4625 66.912 25.6725 67.432 25.9525C67.952 26.2325 68.412 26.5925 68.812 27.0325C69.232 27.4525 69.562 27.9525 69.802 28.5325L66.862 29.7625C66.582 29.1225 66.142 28.6625 65.542 28.3825C64.942 28.0825 64.332 27.9325 63.712 27.9325C63.432 27.9325 63.142 27.9725 62.842 28.0525C62.562 28.1125 62.302 28.2125 62.062 28.3525C61.842 28.4725 61.652 28.6325 61.492 28.8325C61.352 29.0325 61.282 29.2525 61.282 29.4925C61.282 29.8925 61.452 30.2125 61.792 30.4525C62.152 30.6725 62.692 30.8725 63.412 31.0525L65.662 31.6225C67.182 32.0025 68.292 32.5825 68.992 33.3625C69.712 34.1225 70.072 35.0225 70.072 36.0625C70.072 36.7025 69.922 37.3025 69.622 37.8625C69.342 38.4225 68.932 38.9225 68.392 39.3625C67.852 39.8025 67.202 40.1425 66.442 40.3825C65.702 40.6425 64.882 40.7725 63.982 40.7725ZM97.6704 36.9025C96.6504 38.1025 95.4204 39.0525 93.9804 39.7525C92.5404 40.4325 90.9204 40.7725 89.1204 40.7725C87.5204 40.7725 86.0404 40.4925 84.6804 39.9325C83.3204 39.3525 82.1304 38.5625 81.1104 37.5625C80.1104 36.5425 79.3204 35.3525 78.7404 33.9925C78.1804 32.6325 77.9004 31.1525 77.9004 29.5525C77.9004 27.9725 78.1804 26.5025 78.7404 25.1425C79.3204 23.7625 80.1104 22.5725 81.1104 21.5725C82.1304 20.5525 83.3204 19.7625 84.6804 19.2025C86.0404 18.6225 87.5204 18.3325 89.1204 18.3325C90.7804 18.3325 92.2704 18.6425 93.5904 19.2625C94.9104 19.8625 96.0704 20.7225 97.0704 21.8425L94.6704 24.1825C93.9504 23.3225 93.1404 22.6725 92.2404 22.2325C91.3604 21.7925 90.3204 21.5725 89.1204 21.5725C88.0604 21.5725 87.0504 21.7625 86.0904 22.1425C85.1504 22.5025 84.3304 23.0325 83.6304 23.7325C82.9304 24.4125 82.3704 25.2525 81.9504 26.2525C81.5504 27.2325 81.3504 28.3325 81.3504 29.5525C81.3504 30.7725 81.5504 31.8825 81.9504 32.8825C82.3704 33.8625 82.9304 34.7025 83.6304 35.4025C84.3304 36.0825 85.1504 36.6125 86.0904 36.9925C87.0504 37.3525 88.0604 37.5325 89.1204 37.5325C90.4004 37.5325 91.5404 37.2725 92.5404 36.7525C93.5404 36.2125 94.4304 35.4725 95.2104 34.5325L97.6704 36.9025ZM129.96 27.5725H130.14C130.58 26.8725 131.2 26.2925 132 25.8325C132.82 25.3525 133.74 25.1125 134.76 25.1125C136.62 25.1125 138.01 25.6725 138.93 26.7925C139.85 27.8925 140.31 29.3625 140.31 31.2025V40.2925H136.98V31.6525C136.98 30.3725 136.68 29.4825 136.08 28.9825C135.5 28.4625 134.73 28.2025 133.77 28.2025C133.19 28.2025 132.68 28.3225 132.24 28.5625C131.8 28.8025 131.42 29.1325 131.1 29.5525C130.78 29.9525 130.54 30.4225 130.38 30.9625C130.22 31.4825 130.14 32.0325 130.14 32.6125V40.2925H126.81V25.5925H129.96V27.5725ZM146.689 27.5725H146.869C147.309 26.8725 147.929 26.2925 148.729 25.8325C149.549 25.3525 150.469 25.1125 151.489 25.1125C153.349 25.1125 154.739 25.6725 155.659 26.7925C156.579 27.8925 157.039 29.3625 157.039 31.2025V40.2925H153.709V31.6525C153.709 30.3725 153.409 29.4825 152.809 28.9825C152.229 28.4625 151.459 28.2025 150.499 28.2025C149.919 28.2025 149.409 28.3225 148.969 28.5625C148.529 28.8025 148.149 29.1325 147.829 29.5525C147.509 29.9525 147.269 30.4225 147.109 30.9625C146.949 31.4825 146.869 32.0325 146.869 32.6125V40.2925H143.539V25.5925H146.689V27.5725ZM173.887 36.7825C173.267 37.9225 172.387 38.8725 171.247 39.6325C170.107 40.3925 168.707 40.7725 167.047 40.7725C165.947 40.7725 164.927 40.5825 163.987 40.2025C163.067 39.8025 162.267 39.2525 161.587 38.5525C160.907 37.8525 160.377 37.0325 159.997 36.0925C159.617 35.1325 159.427 34.0825 159.427 32.9425C159.427 31.8825 159.607 30.8825 159.967 29.9425C160.327 28.9825 160.827 28.1525 161.467 27.4525C162.127 26.7325 162.917 26.1625 163.837 25.7425C164.757 25.3225 165.777 25.1125 166.897 25.1125C168.037 25.1125 169.047 25.3025 169.927 25.6825C170.827 26.0625 171.587 26.5925 172.207 27.2725C172.827 27.9525 173.297 28.7725 173.617 29.7325C173.957 30.6925 174.127 31.7425 174.127 32.8825C174.127 32.9825 174.127 33.0725 174.127 33.1525C174.107 33.2525 174.097 33.3425 174.097 33.4225C174.077 33.5025 174.067 33.5825 174.067 33.6625H162.757C162.817 34.3625 162.987 34.9725 163.267 35.4925C163.547 36.0125 163.887 36.4425 164.287 36.7825C164.707 37.1225 165.167 37.3725 165.667 37.5325C166.167 37.6925 166.657 37.7725 167.137 37.7725C168.097 37.7725 168.887 37.5425 169.507 37.0825C170.127 36.6225 170.637 36.0525 171.037 35.3725L173.887 36.7825ZM170.797 31.1125C170.757 30.8125 170.657 30.4825 170.497 30.1225C170.357 29.7425 170.127 29.4025 169.807 29.1025C169.507 28.7825 169.107 28.5125 168.607 28.2925C168.127 28.0725 167.537 27.9625 166.837 27.9625C165.877 27.9625 165.047 28.2525 164.347 28.8325C163.667 29.3925 163.207 30.1525 162.967 31.1125H170.797ZM190.381 36.5425C190.101 37.1225 189.751 37.6725 189.331 38.1925C188.931 38.6925 188.451 39.1425 187.891 39.5425C187.351 39.9225 186.721 40.2225 186.001 40.4425C185.281 40.6625 184.491 40.7725 183.631 40.7725C182.511 40.7725 181.481 40.5825 180.541 40.2025C179.601 39.8025 178.791 39.2525 178.111 38.5525C177.431 37.8525 176.901 37.0225 176.521 36.0625C176.141 35.1025 175.951 34.0625 175.951 32.9425C175.951 31.8225 176.141 30.7825 176.521 29.8225C176.901 28.8625 177.431 28.0325 178.111 27.3325C178.791 26.6325 179.601 26.0925 180.541 25.7125C181.481 25.3125 182.511 25.1125 183.631 25.1125C184.491 25.1125 185.271 25.2225 185.971 25.4425C186.691 25.6625 187.321 25.9725 187.861 26.3725C188.421 26.7525 188.901 27.2025 189.301 27.7225C189.701 28.2225 190.021 28.7525 190.261 29.3125L187.201 30.6025C186.861 29.8425 186.391 29.2525 185.791 28.8325C185.191 28.4125 184.431 28.2025 183.511 28.2025C182.951 28.2025 182.411 28.3225 181.891 28.5625C181.391 28.7825 180.941 29.1025 180.541 29.5225C180.161 29.9225 179.851 30.4125 179.611 30.9925C179.391 31.5725 179.281 32.2225 179.281 32.9425C179.281 33.6625 179.391 34.3125 179.611 34.8925C179.851 35.4725 180.161 35.9725 180.541 36.3925C180.941 36.7925 181.391 37.1125 181.891 37.3525C182.411 37.5725 182.951 37.6825 183.511 37.6825C184.431 37.6825 185.211 37.4725 185.851 37.0525C186.511 36.6125 187.021 36.0125 187.381 35.2525L190.381 36.5425ZM194.26 28.5325H191.68V25.5925H194.26V21.0925H197.59V25.5925H201.22V28.5325H197.59V35.0725C197.59 35.4325 197.63 35.7625 197.71 36.0625C197.79 36.3625 197.91 36.6125 198.07 36.8125C198.41 37.1925 198.84 37.3825 199.36 37.3825C199.68 37.3825 199.93 37.3625 200.11 37.3225C200.29 37.2625 200.48 37.1825 200.68 37.0825L201.7 40.0225C201.28 40.1825 200.84 40.3025 200.38 40.3825C199.92 40.4825 199.4 40.5325 198.82 40.5325C198.12 40.5325 197.5 40.4225 196.96 40.2025C196.42 39.9825 195.95 39.6825 195.55 39.3025C194.69 38.4425 194.26 37.2725 194.26 35.7925V28.5325Z" fill="#7DAD8E"/>
<path fill-rule="evenodd" clip-rule="evenodd" d="M120.133 34.0292C121.601 33.4598 122.477 32.7749 122.487 32.1223C122.497 31.4693 121.641 30.7575 120.191 30.1431C120.45 31.4063 120.441 32.7315 120.133 34.0292ZM119.128 27.3739C118.256 25.889 116.951 24.6368 115.286 23.8289C111.103 21.7998 106.125 23.2899 103.707 27.1363C100.256 28.0441 97.9762 29.6522 97.9441 31.7453C97.9119 33.8383 100.141 35.5155 103.562 36.5289C104.433 38.014 105.739 39.2665 107.404 40.0745C111.587 42.1039 116.566 40.6129 118.984 36.7651C122.433 35.8571 124.711 34.2494 124.743 32.1569C124.776 30.0643 122.548 28.3874 119.128 27.3739ZM105.11 34.5939C104.375 32.8578 104.365 30.8255 105.253 28.9961C106.885 25.6316 110.936 24.2273 114.3 25.8595C117.624 27.4719 119.035 31.444 117.495 34.7836C115.722 35.1527 113.59 35.3716 111.292 35.3363C108.995 35.301 106.871 35.017 105.11 34.5939ZM107.177 37.2897C108.463 37.4675 109.835 37.5713 111.257 37.5931C112.681 37.615 114.055 37.5533 115.347 37.4148C113.389 38.8469 110.724 39.1764 108.389 38.0437C107.951 37.8311 107.546 37.5775 107.177 37.2897ZM102.499 33.76C101.047 33.1455 100.191 32.4332 100.201 31.78C100.211 31.127 101.088 30.4416 102.557 29.872C102.249 31.1703 102.24 32.4962 102.499 33.76Z" fill="#99DBB0"/>
<path d="M114.89 18.2925C124.747 5.95453 140.534 -0.0469617 156.098 2.62695L157.137 2.80554C165.334 4.21387 172.983 7.85996 179.239 13.3413L184.89 18.2925" stroke="#99DBB0" stroke-width="3"/>
</svg>
